<svg xmlns="http://www.w3.org/2000/svg" width="218.534" height="441" viewBox="0 0 218.534 441"><defs><style>.a{fill:none;}.b{fill:#fff;}</style></defs><g transform="translate(-12.81 -14.53)"><path class="a" d="M238.561,64.3V64.05c-.032-.4-.079-.792-.139-1.164a.988.988,0,0,1-.02-.115c-.059-.372-.131-.736-.218-1.1v-.1c-.051-.206-.107-.4-.166-.61s-.1-.325-.146-.483-.135-.4-.206-.606c-.131-.356-.277-.7-.432-1.049q-.17-.4-.368-.792c-.162-.309-.337-.614-.515-.911-.222-.364-.455-.721-.7-1.065-.083-.115-.174-.226-.261-.34-.154-.206-.309-.4-.475-.61-.265-.313-.538-.622-.827-.915a15.911,15.911,0,0,0-3.167-2.51h0c-.309-.186-.626-.356-.946-.523-.257-.131-.519-.257-.792-.376a11.28,11.28,0,0,0-1.37-.534c-.333-.115-.669-.218-1.013-.309-.435-.115-.875-.21-1.322-.285-.051,0-.1-.024-.15-.028s0,0-.02,0c-.194-.032-.4-.055-.582-.079l-.285-.036-.483-.044H199.712a2.142,2.142,0,0,0-.424.059,2.66,2.66,0,0,0-1.536.918,2.621,2.621,0,0,0-.546,1.35c0,.051,0,.107,0,.158v.178c0,.214-.028.424-.048.633a3.174,3.174,0,0,1-.04.333c-.012.111-.036.277-.059.4v.063c0,.02-.02.087-.028.135q-.024.166-.059.333h0a1.183,1.183,0,0,1-.044.2c-.012.067-.051.241-.083.36-.04.17-.091.344-.139.515a.836.836,0,0,0-.04.119.76.76,0,0,1-.044.123h0a.432.432,0,0,1-.028.1.542.542,0,0,1-.055.158h0v.055a.44.44,0,0,1-.04.115.052.052,0,0,0,0,.02c-.055.154-.115.309-.178.459h0c0,.036-.032.075-.044.119l-.107.23c-.028.055-.051.115-.075.17s0,0,0,.02c-.036.075-.075.15-.115.226l-.071.139c-.044.1-.1.194-.146.285v.032a.53.53,0,0,1-.051.091h0a1.23,1.23,0,0,1-.087.158c-.036.067-.075.131-.115.2a.063.063,0,0,0,0,.028.058.058,0,0,1-.028.048c-.028.016-.032.048-.051.079s-.055.1-.087.143l-.1.15h0a1.249,1.249,0,0,1-.087.131l-.04.055h0l-.1.154a1.1,1.1,0,0,1-.083.107h0l-.107.154a.082.082,0,0,0,0,.024l-.055.067c-.032.048-.067.091-.1.135a.257.257,0,0,1-.051.063l-.1.131-.044.051a.76.76,0,0,1-.071.087l-.036.04h0l-.269.309h0l-.079.083a.734.734,0,0,1-.055.055,1.741,1.741,0,0,1-.146.15q-.122.133-.257.253l-.166.166c-.055.055-.111.111-.178.166l-.127.111c-.044.04-.083.079-.131.115s-.067.055-.1.083l-.079.071-.048.036c-.079.067-.166.139-.249.2l-.135.1-.123.1-.079.059h0l-.372.253-.127.091h0l-.059.036c-.087.059-.182.111-.269.166a1.761,1.761,0,0,1-.17.1l-.067.036-.3.17a1.231,1.231,0,0,1-.139.079.051.051,0,0,1-.032,0c-.079.048-.162.087-.245.127h-.028l-.051.024-.194.1-.071.032-.15.071-.123.048a.76.76,0,0,1-.1.048l-.1.044-.174.067-.313.115c-.051.024-.107.04-.162.059l-.115.044c-.091.032-.178.063-.265.087s-.127.04-.2.055l-.3.083-.115.028a.4.4,0,0,1-.083.024h-.04c-.162.044-.321.079-.487.111a.23.23,0,0,1-.055,0h-.083l-.277.051-.21.036h-.055c-.154.024-.313.044-.471.055h-1.1a.791.791,0,0,1-.139,0,1.116,1.116,0,0,1-.166,0H101.731a1.062,1.062,0,0,1-.162,0,.86.86,0,0,1-.143,0h-1.1a3.013,3.013,0,0,1-.467-.055H99.8l-.206-.036L99.3,63.7h-.067a.3.3,0,0,1-.063,0c-.17-.036-.337-.071-.507-.115H98.6l-.131-.036c-.1-.024-.21-.051-.309-.083s-.135-.036-.2-.055-.178-.055-.265-.087l-.123-.048a1.022,1.022,0,0,1-.154-.055l-.277-.1-.214-.079-.1-.044a.621.621,0,0,1-.1-.048L96.6,62.9l-.166-.075a.361.361,0,0,0-.055-.028,1.548,1.548,0,0,1-.162-.079l-.087-.04-.044-.024c-.087-.044-.174-.083-.257-.131h0c-.055-.028-.107-.063-.158-.1a2.918,2.918,0,0,1-.344-.19,2.244,2.244,0,0,1-.285-.178c-.051-.024-.1-.055-.146-.083l-.071-.044h0l-.131-.1h0c-.123-.079-.241-.158-.356-.245h-.02a.792.792,0,0,1-.091-.071l-.111-.083-.135-.1a2.672,2.672,0,0,1-.242-.19l-.055-.044-.1-.087-.075-.067c-.051-.036-.087-.075-.135-.115l-.1-.091h-.024a1.583,1.583,0,0,1-.19-.174,3.125,3.125,0,0,1-.257-.253l-.143-.143c-.048-.048-.1-.1-.143-.15l-.044-.044-.091-.1-.055-.067-.2-.23-.036-.04h0c-.032-.04-.067-.071-.1-.111l-.055-.071-.091-.111a.4.4,0,0,1-.048-.063c-.032-.036-.059-.075-.091-.115s-.048-.059-.067-.087a.138.138,0,0,1,0-.032c-.067-.091-.139-.182-.2-.273h0a.242.242,0,0,1-.1.075l-.083-.127a.265.265,0,0,1-.048-.063l-.091-.131v-.024a1.032,1.032,0,0,1-.067-.111v-.024l-.091-.143c0-.024-.032-.048-.048-.079A.432.432,0,0,1,90.884,58h0a2.293,2.293,0,0,1-.123-.214.892.892,0,0,1-.048-.083.467.467,0,0,1-.044-.075c-.02-.032-.036-.071-.055-.1a.3.3,0,0,0-.028-.048c-.048-.087-.1-.178-.139-.269a.086.086,0,0,0-.032-.063c-.051-.1-.1-.2-.15-.3v-.028a.393.393,0,0,0-.063-.146l-.115-.245a.387.387,0,0,0-.044-.119h0c-.048-.111-.091-.23-.131-.344,0-.036-.028-.067-.04-.1a.051.051,0,0,1,0-.02l-.059-.17a.571.571,0,0,0-.055-.17.634.634,0,0,1-.032-.1.792.792,0,0,1-.044-.127l-.04-.119c-.051-.17-.1-.344-.139-.515V54.6c-.024-.1-.044-.194-.067-.289l-.059-.253h0a.051.051,0,0,0,0-.024,1.8,1.8,0,0,0-.051-.285c-.016-.1-.024-.111-.032-.17V53.5c-.02-.123-.036-.245-.051-.368s-.032-.249-.044-.372c-.02-.2-.036-.4-.048-.61a.178.178,0,0,1,0-.044v-.3a2.668,2.668,0,0,0-2.114-2.32,2.126,2.126,0,0,0-.4-.055H62.538A15.836,15.836,0,0,0,55.685,51.5a15.63,15.63,0,0,0-2.11,1.441A15.915,15.915,0,0,0,47.66,65.329v381.54a16.006,16.006,0,0,0,14.672,15.883h161.6c.368-.032.728-.075,1.089-.127l.115-.02c.348-.055.693-.115,1.033-.194h.044c.289-.067.578-.143.863-.226l.087-.028h0c.242-.071.483-.15.717-.234l.222-.079c.2-.067.4-.146.578-.222l.3-.127.4-.182c.245-.115.483-.234.724-.36l.309-.17.3-.174c.146-.087.293-.174.435-.265l.277-.178c.162-.107.321-.218.479-.333l.2-.143.59-.459a16.1,16.1,0,0,0,1.52-1.417l.115-.119.344-.4.194-.226c.241-.289.471-.586.693-.891.079-.111.162-.226.238-.336l.23-.344c.162-.249.321-.5.467-.76a.07.07,0,0,1,.032-.055c.1-.182.206-.368.3-.554l.055-.1.261-.538a.945.945,0,0,1,.051-.111c.087-.194.17-.4.253-.594l.024-.059c.178-.447.337-.9.475-1.362l.036-.127c.051-.182.1-.368.15-.554l.048-.2c.036-.162.075-.325.107-.487a1.667,1.667,0,0,1,.044-.238c.032-.154.059-.313.083-.471l.036-.245c.024-.158.044-.321.059-.483l.024-.238c0-.174.028-.352.04-.53v-.19c0-.245.02-.491.02-.736V65.317A6.187,6.187,0,0,0,238.561,64.3Z" transform="translate(-21.053 -21.083)"/><path class="b" d="M201.613,14.53H42.538A29.728,29.728,0,0,0,12.81,44.258V425.8A29.728,29.728,0,0,0,42.538,455.53H201.613A29.732,29.732,0,0,0,231.344,425.8V44.258A29.731,29.731,0,0,0,201.616,14.53ZM110.05,30.041h22.716a1.334,1.334,0,0,1,0,2.668H110.05a1.334,1.334,0,0,1,0-2.668ZM217.563,425.8c0,.245,0,.491-.02.736v.19c0,.178-.024.356-.04.53l-.024.238a3.284,3.284,0,0,1-.059.483l-.036.245c-.024.158-.051.317-.083.471a1.252,1.252,0,0,1-.044.238c-.032.162-.071.325-.107.487l-.048.2c-.048.186-.1.372-.15.554l-.036.127c-.139.463-.3.915-.475,1.362l-.024.059c-.083.2-.166.4-.253.594a.942.942,0,0,0-.051.111l-.261.538-.055.1c-.1.186-.2.372-.3.554a.523.523,0,0,1-.032.055c-.146.261-.3.511-.467.76l-.23.344c-.075.111-.158.226-.238.337-.222.3-.451.6-.693.891l-.194.226-.344.4-.115.119a16.1,16.1,0,0,1-1.52,1.417l-.59.459-.2.143c-.158.115-.317.226-.479.333l-.277.178c-.143.091-.289.178-.435.265l-.3.174-.309.17c-.241.127-.479.245-.724.36l-.4.182-.3.127c-.19.075-.4.154-.578.222l-.222.079c-.234.083-.475.162-.717.234h0l-.087.028c-.285.083-.574.158-.863.226h-.044c-.34.079-.685.139-1.033.194l-.115.02c-.36.051-.721.1-1.089.127H41.295a16.006,16.006,0,0,1-14.672-15.883V44.262a15.915,15.915,0,0,1,5.9-12.392,15.63,15.63,0,0,1,2.11-1.441,15.836,15.836,0,0,1,6.853-2.067H65.5a2.126,2.126,0,0,1,.4.055,2.668,2.668,0,0,1,2.114,2.32v.3a.178.178,0,0,0,0,.044c0,.2.028.4.048.61a2.979,2.979,0,0,0,.044.372c.016.123.032.245.051.368v.079a1.176,1.176,0,0,0,.032.17c.008.055.032.19.051.285a.051.051,0,0,1,0,.024h0l.059.253c.024.1.044.194.067.289v.032c.04.17.087.344.139.515l.04.119a.791.791,0,0,0,.044.127.633.633,0,0,0,.032.1.571.571,0,0,0,.055.17l.059.17a.051.051,0,0,0,0,.02c0,.036.028.067.04.1.04.115.083.234.131.344h0c0,.036.032.075.044.119l.115.245c.024.048.044.1.063.146v.028c.048.1.1.2.15.3a.061.061,0,0,0,.032.063c.044.091.091.182.139.269a.3.3,0,0,1,.028.048c0,.032.036.071.055.1a.467.467,0,0,0,.044.075.894.894,0,0,0,.048.083,2.294,2.294,0,0,0,.123.214h0a.431.431,0,0,0,.032.059c0,.032.036.055.048.079l.091.143v.024a1.035,1.035,0,0,0,.067.111v.024l.091.131a.265.265,0,0,0,.048.063l.178.111a.242.242,0,0,0,.028.04h0c.063.091.135.182.2.273a.138.138,0,0,0,0,.032c.02.028.048.055.067.087a1.044,1.044,0,0,0,.091.115.4.4,0,0,0,.048.063l.091.111.055.071c.028.04.063.071.1.111h0l.036.04.2.23c0,.024.036.048.055.067l.091.1.044.044c.044.051.1.1.143.15l.143.143a3.126,3.126,0,0,0,.257.253,1.585,1.585,0,0,0,.19.174h.024l.1.091c.048.04.083.079.135.115l.075.067.1.087.055.044a2.672,2.672,0,0,0,.241.19l.135.1.111.083a.792.792,0,0,0,.091.071h.02c.115.087.234.166.356.245h0l.131.1h0l.071.044c.048.028.1.059.146.083a2.245,2.245,0,0,0,.285.178,2.918,2.918,0,0,0,.344.19c.051.032.1.067.158.1h0c.083.048.17.087.257.131l.044.024.087.04a1.548,1.548,0,0,0,.162.079.36.36,0,0,1,.055.028l.166.075.119.048a.621.621,0,0,0,.1.048l.1.044.214.079.277.1a1.021,1.021,0,0,0,.154.055l.174.119c.087.032.178.063.265.087s.127.04.2.055.206.059.309.083l.131.036H77.6c.17.044.337.079.507.115a.3.3,0,0,0,.063,0h.067l.289.055.206.036h.059c.15.024.309.044.467.055h1.1a.859.859,0,0,0,.143,0,1.06,1.06,0,0,0,.162,0h82.809a1.116,1.116,0,0,0,.166,0,.792.792,0,0,0,.139,0h1.1a3.123,3.123,0,0,0,.471-.055h.055l.21-.036.277-.051h.083a.23.23,0,0,0,.055,0c.166-.032.325-.067.487-.111h.04a.4.4,0,0,0,.083-.024l.115-.028.3-.083a.668.668,0,0,0,.2-.055c.063-.02.174-.055.265-.087l.115-.044a.425.425,0,0,0,.162-.059l.313-.115.174-.067.1-.044a.758.758,0,0,0,.1-.048L168.6,42l.15-.071.071-.032.194-.1.051-.024h.028c.083-.04.166-.079.245-.127a.051.051,0,0,0,.032,0,1.237,1.237,0,0,0,.139-.079l.3-.17.067-.036c.055-.028.111-.067.17-.1s.182-.107.269-.166l.059-.036h0l.127-.091.372-.253h0l.079-.059.123-.1.166-.107c.083-.059.17-.131.249-.2l.048-.036.079-.071c.032-.028.067-.051.1-.083s.087-.075.131-.115l.127-.111c.067-.055.123-.111.178-.166l.166-.166q.135-.12.257-.253a1.743,1.743,0,0,0,.146-.15.734.734,0,0,0,.055-.055l.079-.083h0l.269-.309h0l.036-.04a.757.757,0,0,0,.071-.087l.044-.051.1-.131a.257.257,0,0,0,.051-.063c.036-.044.071-.087.1-.135l.055-.067a.082.082,0,0,1,0-.024l.107-.154h0a1.1,1.1,0,0,0,.083-.107l.1-.154h0l.04-.055a1.249,1.249,0,0,0,.087-.131h0l.1-.15c.032-.048.055-.091.087-.143s.04-.055.051-.079,0-.032.028-.048a.064.064,0,0,1,0-.028c.04-.067.079-.131.115-.2a1.232,1.232,0,0,0,.087-.158h0a.532.532,0,0,0,.051-.091v-.032c.051-.091.1-.186.146-.285l.071-.139c.04-.075.079-.15.115-.226v-.02a1.023,1.023,0,0,1,.075-.17l.107-.23a.387.387,0,0,1,.044-.119h0c.063-.15.123-.3.178-.459a.052.052,0,0,1,0-.02.33.33,0,0,1,.04-.115v-.055h0c.02-.055.036-.107.055-.158a.432.432,0,0,0,.028-.1h0a.76.76,0,0,0,.044-.123.834.834,0,0,1,.04-.119c.048-.17.1-.344.139-.515.032-.119.055-.241.083-.36s.032-.131.044-.2h0q.036-.166.059-.333a.231.231,0,0,1,.028-.135c.028-.044,0-.044,0-.063.024-.135.04-.273.059-.4s.028-.222.04-.333c.02-.21.036-.42.048-.633v-.337a2.621,2.621,0,0,1,.728-1.528,2.66,2.66,0,0,1,1.536-.966,2.142,2.142,0,0,1,.424-.059H202.84l.483.044.285.036c.194.024.4.048.582.079h.02a.356.356,0,0,1,.15.028c.447.075.887.17,1.322.285.344.091.681.194,1.013.309.467.158.926.337,1.37.534.269.119.531.245.792.376.321.166.637.337.946.523h0a15.911,15.911,0,0,1,3.167,2.51c.289.293.562.6.827.915.166.2.321.4.475.61.087.115.178.226.261.34.249.344.483.7.7,1.065.178.3.352.6.515.911s.253.519.368.792c.154.344.3.693.432,1.049.071.2.143.4.206.606s.1.321.146.483.115.4.166.61v.1c.087.364.158.728.218,1.1a1,1,0,0,0,.02.115c.059.4.107.792.139,1.164v.253c.024.337.036.673.04,1.013V425.755Z"/></g></svg>