<svg xmlns="http://www.w3.org/2000/svg" width="25" height="25" viewBox="0 0 25 25"><defs><style>.a{fill:#45b8ac;}</style></defs><g transform="translate(5.936 3.141)"><path class="a" d="M139.917,64.6a.942.942,0,0,0-1.332,0l-11.3,11.274L123.2,71.447a.942.942,0,1,0-1.386,1.276l4.742,5.15a.941.941,0,0,0,.673.3h.02a.943.943,0,0,0,.665-.275l12-11.966A.942.942,0,0,0,139.917,64.6Z" transform="translate(-121.568 -64.327)"/></g><path class="a" d="M24.058,11.558a.942.942,0,0,0-.942.942A10.616,10.616,0,1,1,12.5,1.884.942.942,0,1,0,12.5,0,12.5,12.5,0,1,0,25,12.5.942.942,0,0,0,24.058,11.558Z"/></svg>